{"asset":{"generator":"3D Builder","version":"2.0"},"scene":0,"scenes":[{"nodes":[0]}],"nodes":[{"mesh":0,"matrix":[0.99999994039535522,0,0,0,0,-1.1920928244535389E-7,-0.99999982118606567,0,0,0.99999982118606567,-1.1920928244535389E-7,0,2.41287057001216E-9,0.042191583663225174,-6.5435870055807754E-9,1]}],"meshes":[{"primitives":[{"attributes":{"POSITION":0},"mode":4,"indices":1,"material":0}]}],"materials":[{"name":"Translucent","pbrMetallicRoughness":{"baseColorFactor":[0.0015176349552348256,0.36063098907470703,0.81050705909729,1],"metallicFactor":0,"roughnessFactor":1},"alphaMode":"OPAQUE"}],"accessors":[{"bufferView":0,"byteOffset":0,"count":92851,"componentType":5126,"type":"VEC3","min":[-0.073799125850200653,-0.072314240038394928,-0.042191591113805771],"max":[0.072085373103618622,0.10347269475460052,0.096629776060581207]},{"bufferView":1,"byteOffset":0,"count":557046,"componentType":5125,"type":"SCALAR"}],"bufferViews":[{"buffer":0,"byteOffset":0,"byteLength":1114212,"byteStride":12,"target":34962},{"buffer":0,"byteOffset":1114212,"byteLength":2228184,"target":34963}],"buffers":[{"byteLength":3342396,"uri":"BrainModel.bin"}]}